# xmcd
#
# Track frame offsets: 
#        150
#        8549
#        19859
#        32270
#        43574
#        57580
#        66952
#        76101
#        88085
#        98409
#        109715
#        121231
#        132106
#        141680
#        151156
#        161994
#        171891
#        182533
#        195156
#        206472
#        219906
#        231690
#        243546
#        252963
#
# Disc length: 3513 seconds
#
# Revision: 0
# Processed by: cddbd v1.5.2PL0 Copyright (c) Steve Scherf et al.
# Submitted via: ExactAudioCopy v1.0b3
#
DISCID=3d0db718
DTITLE=Various Artist - Goldmine 200 - Rarest Of The Rare
DYEAR=1900
DGENRE=Soul
TTITLE0=Charles Brandy - I Can't Get Enough Of You
TTITLE1=Celebrities - I Choose You Baby
TTITLE2=Maragret Little - Love Will Find A Way
TTITLE3=Fred and The Turbins - Bernadine
TTITLE4=Kenny Smith - Everybody Knows I Love You
TTITLE5=Frankie Lyman - Im Sorry
TTITLE6=McGees - So Tired
TTITLE7=D.C. Magnatones - Does She Love Me
TTITLE8=Johnny Praye - Can't Get Too Much Lovin'
TTITLE9=Betty Brooks - There Must Be A Love Somewhere
TTITLE10=Classics - One Dance 
TTITLE11=Paul Kelly - The Upset
TTITLE12=Doll Face - Betty Ann
TTITLE13=Len Barry - I'm In Love
TTITLE14=Prince Ella and Sidney Jones - Baby I Got To Cut You Loose
TTITLE15=Conqistadors - Can't Stop Loving You
TTITLE16=Maragret Little  - I Need Some Loving
TTITLE17=Diane Lewis - Without Your Love
TTITLE18=Leonard Adeair - I Dig You Adiair Big Star
TTITLE19=Clydene Jackson - Honest To Pete
TTITLE20=Blendels - Did You Mean
TTITLE21=Gloria Howell - He's Gone
TTITLE22=Willie Wade - When Push Comes To Shove
TTITLE23=Court Davis - Try To Think What You're Doing
EXTD=
EXTT0=
EXTT1=
EXTT2=
EXTT3=
EXTT4=
EXTT5=
EXTT6=
EXTT7=
EXTT8=
EXTT9=
EXTT10=
EXTT11=
EXTT12=
EXTT13=
EXTT14=
EXTT15=
EXTT16=
EXTT17=
EXTT18=
EXTT19=
EXTT20=
EXTT21=
EXTT22=
EXTT23=
PLAYORDER=
